<?xml version="1.0" encoding="UTF-8" standalone="no"?>
<!DOCTYPE svg PUBLIC "-//W3C//DTD SVG 1.1//EN"
 "http://www.w3.org/Graphics/SVG/1.1/DTD/svg11.dtd">
<!-- Generated by graphviz version 2.38.0 (20140413.2041)
 -->
<!-- Title: models_diagram Pages: 1 -->
<svg width="918pt" height="288pt"
 viewBox="0.00 0.00 918.34 288.00" xmlns="http://www.w3.org/2000/svg" xmlns:xlink="http://www.w3.org/1999/xlink">
<g id="graph0" class="graph" transform="scale(1 1) rotate(0) translate(4 284)">
<title>models_diagram</title>
<polygon fill="none" stroke="none" points="-4,4 -4,-284 914.343,-284 914.343,4 -4,4"/>
<!-- _diagram_info -->
<g id="node1" class="node"><title>_diagram_info</title>
<text text-anchor="start" x="8" y="-251.1" font-family="Times,serif" font-size="13.00">Models diagram</text>
<text text-anchor="start" x="8" y="-237.1" font-family="Times,serif" font-size="13.00">Date: Feb 22 2017 &#45; 12:39</text>
<text text-anchor="start" x="8" y="-223.1" font-family="Times,serif" font-size="13.00">Migration version: 20170222145509</text>
<text text-anchor="start" x="8" y="-209.1" font-family="Times,serif" font-size="13.00">Generated by RailRoady 1.5.2</text>
<text text-anchor="start" x="8" y="-195.1" font-family="Times,serif" font-size="13.00">http://railroady.prestonlee.com</text>
</g>
<!-- Category -->
<g id="node2" class="node"><title>Category</title>
<path fill="none" stroke="black" d="M244,-181C244,-181 464,-181 464,-181 470,-181 476,-187 476,-193 476,-193 476,-260 476,-260 476,-266 470,-272 464,-272 464,-272 244,-272 244,-272 238,-272 232,-266 232,-260 232,-260 232,-193 232,-193 232,-187 238,-181 244,-181"/>
<text text-anchor="middle" x="354" y="-256.8" font-family="Times,serif" font-size="14.00">Category</text>
<polyline fill="none" stroke="black" points="232,-249 476,-249 "/>
<text text-anchor="start" x="240" y="-233.8" font-family="Times,serif" font-size="14.00">id :integer</text>
<text text-anchor="start" x="240" y="-218.8" font-family="Times,serif" font-size="14.00">name :character varying</text>
<text text-anchor="start" x="240" y="-203.8" font-family="Times,serif" font-size="14.00">created_at :timestamp without time zone</text>
<text text-anchor="start" x="240" y="-188.8" font-family="Times,serif" font-size="14.00">updated_at :timestamp without time zone</text>
</g>
<!-- Item -->
<g id="node3" class="node"><title>Item</title>
<path fill="none" stroke="black" d="M375,-0.5C375,-0.5 595,-0.5 595,-0.5 601,-0.5 607,-6.5 607,-12.5 607,-12.5 607,-124.5 607,-124.5 607,-130.5 601,-136.5 595,-136.5 595,-136.5 375,-136.5 375,-136.5 369,-136.5 363,-130.5 363,-124.5 363,-124.5 363,-12.5 363,-12.5 363,-6.5 369,-0.5 375,-0.5"/>
<text text-anchor="middle" x="485" y="-121.3" font-family="Times,serif" font-size="14.00">Item</text>
<polyline fill="none" stroke="black" points="363,-113.5 607,-113.5 "/>
<text text-anchor="start" x="371" y="-98.3" font-family="Times,serif" font-size="14.00">id :integer</text>
<text text-anchor="start" x="371" y="-83.3" font-family="Times,serif" font-size="14.00">serial_number :integer</text>
<text text-anchor="start" x="371" y="-68.3" font-family="Times,serif" font-size="14.00">description :text</text>
<text text-anchor="start" x="371" y="-53.3" font-family="Times,serif" font-size="14.00">category_id :integer</text>
<text text-anchor="start" x="371" y="-38.3" font-family="Times,serif" font-size="14.00">created_at :timestamp without time zone</text>
<text text-anchor="start" x="371" y="-23.3" font-family="Times,serif" font-size="14.00">updated_at :timestamp without time zone</text>
<text text-anchor="start" x="371" y="-8.3" font-family="Times,serif" font-size="14.00">user_id :integer</text>
</g>
<!-- Category&#45;&gt;Item -->
<g id="edge1" class="edge"><title>Category&#45;&gt;Item</title>
<path fill="none" stroke="#bad8f3" d="M396.779,-174.557C404.889,-164.899 413.53,-154.61 422.11,-144.392"/>
<ellipse fill="none" stroke="#bad8f3" cx="394.112" cy="-177.733" rx="4.00002" ry="4.00002"/>
<polygon fill="#bad8f3" stroke="#bad8f3" points="422.22,-144.261 432.097,-139.497 425.435,-140.432 428.651,-136.603 428.651,-136.603 428.651,-136.603 425.435,-140.432 425.204,-133.709 422.22,-144.261 422.22,-144.261"/>
</g>
<!-- ApplicationRecord -->
<g id="node4" class="node"><title>ApplicationRecord</title>
<ellipse fill="none" stroke="black" cx="833" cy="-226.5" rx="77.1866" ry="18"/>
<text text-anchor="middle" x="833" y="-222.8" font-family="Times,serif" font-size="14.00">ApplicationRecord</text>
</g>
<!-- User -->
<g id="node5" class="node"><title>User</title>
<path fill="none" stroke="black" d="M506,-173.5C506,-173.5 726,-173.5 726,-173.5 732,-173.5 738,-179.5 738,-185.5 738,-185.5 738,-267.5 738,-267.5 738,-273.5 732,-279.5 726,-279.5 726,-279.5 506,-279.5 506,-279.5 500,-279.5 494,-273.5 494,-267.5 494,-267.5 494,-185.5 494,-185.5 494,-179.5 500,-173.5 506,-173.5"/>
<text text-anchor="middle" x="616" y="-264.3" font-family="Times,serif" font-size="14.00">User</text>
<polyline fill="none" stroke="black" points="494,-256.5 738,-256.5 "/>
<text text-anchor="start" x="502" y="-241.3" font-family="Times,serif" font-size="14.00">id :integer</text>
<text text-anchor="start" x="502" y="-226.3" font-family="Times,serif" font-size="14.00">name :character varying</text>
<text text-anchor="start" x="502" y="-211.3" font-family="Times,serif" font-size="14.00">mail :character varying</text>
<text text-anchor="start" x="502" y="-196.3" font-family="Times,serif" font-size="14.00">created_at :timestamp without time zone</text>
<text text-anchor="start" x="502" y="-181.3" font-family="Times,serif" font-size="14.00">updated_at :timestamp without time zone</text>
</g>
<!-- User&#45;&gt;Item -->
<g id="edge2" class="edge"><title>User&#45;&gt;Item</title>
<path fill="none" stroke="#f37849" d="M566.661,-166.745C560.614,-159.544 554.37,-152.109 548.155,-144.707"/>
<ellipse fill="none" stroke="#f37849" cx="569.442" cy="-170.057" rx="4.00002" ry="4.00002"/>
<polygon fill="#f37849" stroke="#f37849" points="547.863,-144.359 544.878,-133.808 544.647,-140.53 541.432,-136.701 541.432,-136.701 541.432,-136.701 544.647,-140.53 537.986,-139.595 547.863,-144.359 547.863,-144.359"/>
</g>
</g>
</svg>
